<svg xmlns="http://www.w3.org/2000/svg" width="226" height="26">
    <path fill="#FFF" fill-rule="evenodd" d="M222.001 20.298v-1.863c-.558.684-1.246 1.197-2.065 1.539-.819.342-1.724.513-2.714.513-1.386 0-2.632-.306-3.739-.918-1.107-.612-1.976-1.48-2.606-2.605-.63-1.125-.945-2.417-.945-3.875 0-1.458.315-2.745.945-3.861.63-1.116 1.499-1.98 2.606-2.592 1.107-.612 2.353-.918 3.739-.918.954 0 1.827.162 2.619.486.792.324 1.467.81 2.025 1.458V.264h3.375v20.034h-3.24zm-.648-9.585c-.378-.684-.891-1.21-1.539-1.579-.648-.369-1.377-.554-2.187-.554-.81 0-1.539.185-2.187.554-.648.369-1.161.895-1.539 1.579-.378.684-.567 1.476-.567 2.376 0 .9.189 1.692.567 2.376.378.684.891 1.211 1.539 1.58.648.369 1.377.553 2.187.553.81 0 1.539-.184 2.187-.553.648-.369 1.161-.896 1.539-1.58.378-.684.567-1.476.567-2.376 0-.9-.189-1.692-.567-2.376zm-24.839 3.456c.198 1.062.715 1.904 1.552 2.525.837.621 1.877.931 3.119.931 1.583 0 2.889-.522 3.915-1.566l1.809 2.079c-.648.774-1.468 1.359-2.457 1.755-.99.396-2.106.594-3.348.594-1.584 0-2.98-.315-4.185-.945-1.206-.63-2.138-1.507-2.795-2.632-.657-1.125-.985-2.399-.985-3.821 0-1.404.319-2.668.958-3.793s1.526-2.003 2.66-2.633c1.134-.63 2.412-.945 3.834-.945 1.404 0 2.659.311 3.766.932 1.107.621 1.971 1.494 2.592 2.619.621 1.125.932 2.425.932 3.901 0 .234-.018.567-.054.999h-11.313zm6.831-4.779c-.739-.648-1.657-.972-2.754-.972-1.08 0-1.994.32-2.741.959-.747.639-1.201 1.489-1.363 2.551h8.181c-.145-1.044-.585-1.89-1.323-2.538zm-16.821 3.078c0-1.26-.297-2.209-.891-2.848-.594-.639-1.44-.959-2.538-.959-1.242 0-2.223.374-2.943 1.121-.72.747-1.08 1.822-1.08 3.226v7.29h-3.375V5.88h3.213v1.863c.558-.666 1.26-1.17 2.106-1.512.846-.342 1.8-.513 2.862-.513 1.818 0 3.276.531 4.374 1.593 1.098 1.062 1.647 2.637 1.647 4.725v8.262h-3.375v-7.83zm-25.434 1.701c.198 1.062.716 1.904 1.553 2.525s1.876.931 3.118.931c1.584 0 2.889-.522 3.915-1.566l1.809 2.079c-.648.774-1.467 1.359-2.457 1.755-.99.396-2.106.594-3.348.594-1.584 0-2.979-.315-4.185-.945-1.206-.63-2.137-1.507-2.794-2.632-.658-1.125-.986-2.399-.986-3.821 0-1.404.32-2.668.959-3.793.638-1.125 1.525-2.003 2.659-2.633 1.134-.63 2.412-.945 3.834-.945 1.404 0 2.66.311 3.767.932 1.107.621 1.971 1.494 2.592 2.619.621 1.125.931 2.425.931 3.901 0 .234-.018.567-.054.999H161.09zm6.831-4.779c-.738-.648-1.656-.972-2.754-.972-1.08 0-1.994.32-2.74.959-.747.639-1.202 1.489-1.364 2.551h8.181c-.144-1.044-.585-1.89-1.323-2.538zM152.14 19.569c-1.107.612-2.363.918-3.767.918-1.944 0-3.483-.648-4.617-1.944v6.993h-3.375V5.88h3.213v1.89c.558-.684 1.247-1.197 2.066-1.539.819-.342 1.723-.513 2.713-.513 1.404 0 2.66.306 3.767.918 1.107.612 1.975 1.476 2.605 2.592.63 1.116.945 2.403.945 3.861 0 1.458-.315 2.75-.945 3.875-.63 1.125-1.498 1.993-2.605 2.605zm-1.08-9.747c-.801-.828-1.823-1.242-3.065-1.242-.81 0-1.539.185-2.187.554-.648.369-1.161.895-1.539 1.579-.378.684-.567 1.476-.567 2.376 0 .9.189 1.692.567 2.376.378.684.891 1.211 1.539 1.58.648.369 1.377.553 2.187.553 1.242 0 2.264-.414 3.065-1.242.801-.828 1.201-1.917 1.201-3.267 0-1.35-.4-2.439-1.201-3.267zm-17.442 9.747c-1.107.612-2.362.918-3.766.918-1.944 0-3.483-.648-4.617-1.944v6.993h-3.375V5.88h3.213v1.89c.557-.684 1.246-1.197 2.065-1.539.819-.342 1.724-.513 2.714-.513 1.404 0 2.659.306 3.766.918 1.107.612 1.975 1.476 2.606 2.592.63 1.116.945 2.403.945 3.861 0 1.458-.315 2.75-.945 3.875-.631 1.125-1.499 1.993-2.606 2.605zm-1.08-9.747c-.801-.828-1.822-1.242-3.064-1.242-.81 0-1.539.185-2.187.554-.648.369-1.161.895-1.539 1.579-.378.684-.567 1.476-.567 2.376 0 .9.189 1.692.567 2.376.378.684.891 1.211 1.539 1.58.648.369 1.377.553 2.187.553 1.242 0 2.263-.414 3.064-1.242.801-.828 1.202-1.917 1.202-3.267 0-1.35-.401-2.439-1.202-3.267zm-18.184 8.721c-.414.63-1.004 1.112-1.769 1.445-.765.333-1.687.499-2.767.499-1.08 0-2.025-.185-2.835-.553-.81-.369-1.436-.882-1.877-1.539-.441-.657-.661-1.4-.661-2.228 0-1.296.481-2.335 1.444-3.118.963-.783 2.48-1.175 4.55-1.175h3.726v-.216c0-1.008-.302-1.782-.905-2.322s-1.498-.81-2.686-.81c-.81 0-1.607.126-2.39.378-.783.252-1.444.603-1.984 1.053L104.877 7.5c.756-.576 1.665-1.017 2.727-1.323 1.062-.306 2.187-.459 3.375-.459 2.124 0 3.748.509 4.873 1.526s1.688 2.551 1.688 4.603v8.451h-3.186v-1.755zm-.189-4.428h-3.483c-1.944 0-2.916.639-2.916 1.917 0 .612.243 1.098.729 1.458.486.36 1.161.54 2.025.54.846 0 1.597-.193 2.254-.58.657-.387 1.121-.941 1.391-1.661v-1.674zm-16.362-1.647c0-1.26-.297-2.209-.891-2.848-.594-.639-1.44-.959-2.538-.959-1.242 0-2.223.374-2.943 1.121-.72.747-1.08 1.822-1.08 3.226v7.29h-3.375V.264h3.375v7.29c.558-.594 1.246-1.048 2.065-1.363.819-.315 1.733-.473 2.741-.473 1.818 0 3.276.531 4.374 1.593 1.098 1.062 1.647 2.637 1.647 4.725v8.262h-3.375v-7.83zm-24.3 8.019c-1.584 0-2.808-.414-3.672-1.242-.864-.828-1.296-2.034-1.296-3.618V8.688h-2.376v-2.7h2.376V2.694h3.375v3.294h3.861v2.7H71.91v6.858c0 .702.171 1.238.513 1.607.342.369.837.553 1.485.553.756 0 1.386-.198 1.89-.594l.945 2.403c-.396.324-.877.567-1.444.729-.567.162-1.166.243-1.796.243zm-12.932-1.944c-.415.63-1.004 1.112-1.769 1.445-.765.333-1.687.499-2.767.499-1.08 0-2.025-.185-2.835-.553-.81-.369-1.436-.882-1.877-1.539-.441-.657-.661-1.4-.661-2.228 0-1.296.481-2.335 1.444-3.118.963-.783 2.479-1.175 4.55-1.175h3.726v-.216c0-1.008-.302-1.782-.905-2.322s-1.498-.81-2.686-.81c-.81 0-1.607.126-2.39.378-.783.252-1.444.603-1.984 1.053L51.094 7.5c.756-.576 1.664-1.017 2.727-1.323 1.061-.306 2.187-.459 3.375-.459 2.123 0 3.748.509 4.873 1.526s1.688 2.551 1.688 4.603v8.451h-3.186v-1.755zm-.189-4.428h-3.483c-1.944 0-2.916.639-2.916 1.917 0 .612.243 1.098.729 1.458.486.36 1.161.54 2.025.54.845 0 1.597-.193 2.254-.58.657-.387 1.121-.941 1.391-1.661v-1.674zM44.02 12.468c0-1.26-.297-2.209-.891-2.848-.594-.639-1.441-.959-2.538-.959-1.242 0-2.224.374-2.943 1.121-.721.747-1.08 1.822-1.08 3.226v7.29h-3.375V.264h3.375v7.29c.557-.594 1.246-1.048 2.065-1.363.819-.315 1.732-.473 2.741-.473 1.817 0 3.275.531 4.374 1.593 1.097 1.062 1.647 2.637 1.647 4.725v8.262H44.02v-7.83zm-23.76 7.83L15.589 6.312l-4.752 13.986H7.084L.82 1.398h3.645l4.698 14.364L14.05 1.398h3.24l4.779 14.445 4.833-14.445h3.348l-6.264 18.9H20.26z"/>
</svg>
